<svg width="36" height="36" viewBox="0 0 36 36" fill="none" xmlns="http://www.w3.org/2000/svg">
<path d="M29.7083 30V13.698L18.125 6.49795L6.54165 13.698V30H12.3333V25.875C12.3333 24.2837 12.9435 22.7575 14.0297 21.6323C15.1158 20.5071 16.5889 19.875 18.125 19.875C19.661 19.875 21.1342 20.5071 22.2203 21.6323C23.3065 22.7575 23.9166 24.2837 23.9166 25.875V30H29.7083ZM21.0208 33V25.875C21.0208 25.0793 20.7157 24.3162 20.1726 23.7536C19.6296 23.191 18.893 22.875 18.125 22.875C17.357 22.875 16.6204 23.191 16.0773 23.7536C15.5342 24.3162 15.2291 25.0793 15.2291 25.875V33H6.54165C5.77362 33 5.03706 32.6839 4.49398 32.1213C3.95091 31.5587 3.64581 30.7956 3.64581 30V13.698C3.64581 13.1799 3.7753 12.6707 4.02168 12.2198C4.26806 11.769 4.62293 11.392 5.05174 11.1255L16.6351 3.92545C17.0851 3.6457 17.6001 3.49792 18.125 3.49792C18.6498 3.49792 19.1648 3.6457 19.6149 3.92545L31.1982 11.1255C31.627 11.392 31.9819 11.769 32.2283 12.2198C32.4747 12.6707 32.6042 13.1799 32.6041 13.698V30C32.6041 30.7956 32.2991 31.5587 31.756 32.1213C31.2129 32.6839 30.4763 33 29.7083 33H21.0208Z" fill="#AAAAAA"/>
</svg>
