<svg width="24" height="24" viewBox="0 0 24 24" fill="none" xmlns="http://www.w3.org/2000/svg">
<path fill-rule="evenodd" clip-rule="evenodd" d="M6.99988 5.99994C4.23845 5.99994 1.99988 8.23852 1.99988 10.9999V16.9999C1.99988 19.7614 4.23845 21.9999 6.99988 21.9999H16.9999C19.6775 21.9999 21.8635 19.8952 21.9937 17.2499H17.4999C15.705 17.2499 14.2499 15.7949 14.2499 13.9999C14.2499 12.205 15.705 10.7499 17.4999 10.7499H21.9937C21.8635 8.10466 19.6775 5.99994 16.9999 5.99994H6.99988ZM17.4999 12.2499H21.9999V15.7499H17.4999C16.5334 15.7499 15.7499 14.9664 15.7499 13.9999C15.7499 13.0334 16.5334 12.2499 17.4999 12.2499ZM5.99988 16.7499C5.58566 16.7499 5.24988 17.0857 5.24988 17.4999C5.24988 17.9142 5.58566 18.2499 5.99988 18.2499H11.9999C12.4141 18.2499 12.7499 17.9142 12.7499 17.4999C12.7499 17.0857 12.4141 16.7499 11.9999 16.7499H5.99988ZM17.4999 13.2499C17.0857 13.2499 16.7499 13.5857 16.7499 13.9999C16.7499 14.4142 17.0857 14.7499 17.4999 14.7499H17.6999C18.1141 14.7499 18.4499 14.4142 18.4499 13.9999C18.4499 13.5857 18.1141 13.2499 17.6999 13.2499H17.4999Z" fill="#438883"/>
<path d="M19.4878 4.9929C18.7667 3.00153 16.6606 1.71588 14.4414 2.17278L5.84064 3.94351C4.04426 4.31336 2.58887 5.49758 1.82764 7.06292C3.0151 5.50518 4.89022 4.49988 7.00015 4.49988H17.0001C17.8813 4.49988 18.7215 4.67522 19.4878 4.9929Z" fill="#438883"/>
</svg>
